<svg width="542" height="561" viewBox="0 0 542 561" fill="none" xmlns="http://www.w3.org/2000/svg">
<path fill-rule="evenodd" clip-rule="evenodd" d="M97.3084 22.746L114.072 8.316C127.796 -3.49681 148.486 -1.99786 160.363 11.6697L162.157 13.7332C174.349 27.7631 196.144 27.7327 208.297 13.6688C220.389 -0.324049 242.046 -0.437011 254.283 13.429L254.768 13.9778C267.068 27.9155 288.838 27.8019 300.992 13.7367C313.126 -0.304572 334.849 -0.445877 347.164 13.4363L347.751 14.0976C360.059 27.9717 381.779 27.8017 393.868 13.7368C405.937 -0.304162 427.61 -0.501533 439.933 13.3173L442.985 16.7406C454.111 29.217 473.686 29.0148 484.551 16.3114C496.858 1.92343 519.667 3.91881 529.288 20.225L536.007 31.6131C539.372 37.3153 541.146 43.8151 541.146 50.4359V142.114C541.146 196.452 513.004 244.216 470.5 271.628C512.112 285.994 542 325.507 542 372.001V507.274C542 535.459 510.39 552.086 487.164 536.118C474.09 527.129 456.605 528.058 444.557 538.382L427.732 552.798C413.977 564.584 393.295 563.086 381.383 549.441L379.587 547.384C367.357 533.374 345.566 533.404 333.375 547.448C321.245 561.421 299.591 561.534 287.317 547.688L286.829 547.139C274.491 533.222 252.725 533.335 240.533 547.38C228.362 561.402 206.642 561.543 194.289 547.681L193.699 547.019C181.353 533.165 159.638 533.335 147.511 547.38C135.404 561.401 113.735 561.599 101.375 547.801L98.3131 544.382C87.1544 531.925 67.584 532.128 56.6851 544.812C44.3361 559.185 21.5236 557.187 11.8618 540.886L5.18341 529.618C1.7904 523.894 -4.61352e-06 517.362 -5.1548e-06 510.707L-1.25458e-05 419.841C-1.69773e-05 365.359 28.292 317.485 70.9857 290.109C29.6371 275.551 1.25458e-05 236.145 1.25458e-05 189.818V53.7203C1.25458e-05 25.5931 31.5749 9.02686 54.7186 25.0114C67.7781 34.031 85.2795 33.1 97.3084 22.746Z" fill="white"/>
</svg>
