<svg width="186" height="57" viewBox="0 0 186 57" fill="none" xmlns="http://www.w3.org/2000/svg">
<g id="Frame" clip-path="url(#clip0_1_930)">
<path id="Vector" d="M182.306 11.0497C172.464 -6.08882 146.09 -2.6226 141.76 16.8267C141.169 19.7152 145.499 20.8706 146.09 17.9821C148.845 6.42807 163.607 -0.311792 173.645 8.35375C181.912 15.4787 181.715 28.1882 176.598 37.0463C166.363 54.7625 136.249 57.4585 120.896 44.749C121.487 44.1713 121.88 43.401 122.274 42.8233C125.423 38.0092 127.391 26.4551 118.337 26.07C110.858 25.8774 109.677 36.276 112.433 40.8977C113.023 42.0531 113.81 43.2085 114.795 44.1713C110.464 48.2152 104.56 50.3335 98.4581 50.3335C90.1914 50.3335 83.6962 46.4821 79.366 40.8977C88.0263 27.2254 88.8136 15.2862 83.6962 11.2423C80.9406 8.93145 76.02 8.93145 73.0676 11.0497C67.3596 14.7085 66.7692 26.6477 74.0517 40.1274C72.6739 42.0531 69.9184 45.5193 64.9977 47.6375C63.0295 48.4078 56.9279 51.1037 50.4327 48.4078C46.4962 46.6747 44.3311 43.5936 43.347 42.0531C44.7247 40.5125 45.9057 38.7794 46.693 36.8537C49.2517 31.4619 49.6454 19.5227 41.9692 17.4044C34.293 15.4787 28.9787 25.1071 29.766 31.2693C30.3565 35.6983 32.3247 39.7423 35.2771 43.0159C25.8295 50.1409 11.2644 48.4078 2.80093 39.9348C1.22633 38.3943 -0.938753 40.7051 0.439025 42.2456C10.0835 52.2592 27.2073 54.1848 38.6231 46.4821C47.0866 53.7997 59.8803 56.4956 69.5247 50.7186C71.6898 49.3706 74.0517 47.2524 76.4136 44.749C86.6485 57.0733 106.528 58.8064 118.141 47.8301C129.163 57.2659 148.058 59.1916 160.852 55.1477C179.55 49.5632 192.737 29.3436 182.306 11.0497ZM38.2295 23.374C38.4263 23.1815 39.8041 22.026 41.3787 22.4112C44.1343 22.9889 44.7247 27.4179 44.9216 27.9956C45.512 31.847 43.7406 34.9281 42.9533 36.276C42.166 37.8166 41.1819 38.7794 40.3946 39.5497C39.6073 38.5869 38.82 37.0463 38.0327 35.1206C37.2454 33.195 36.4581 31.2693 36.4581 28.7659C36.2612 27.6105 36.4581 24.9146 38.2295 23.374ZM72.2803 21.2558C72.2803 16.249 73.8549 14.901 74.6422 14.3233C75.8232 13.5531 77.5946 13.1679 78.9724 13.9382C80.9406 14.901 81.3343 17.2119 81.5311 18.5598C82.9089 25.2997 77.9882 33.9652 76.2168 36.6612C72.6739 29.7287 72.2803 24.1443 72.2803 21.2558ZM120.109 32.6173C120.306 34.1578 120.109 37.2389 117.353 41.2828C116.566 40.1274 114.991 37.8166 114.991 34.7355C114.991 33.7727 114.991 31.847 116.369 30.499C116.566 30.3064 117.944 28.9585 118.928 29.3436C119.912 29.9213 120.109 31.6544 120.109 32.6173Z" fill="#EBE3CC"/>
</g>
<defs>
<clipPath id="clip0_1_930">
<rect width="186" height="57" fill="white"/>
</clipPath>
</defs>
</svg>
