<svg width="19" height="19" viewBox="0 0 19 19" fill="none" xmlns="http://www.w3.org/2000/svg">
<path d="M1.70711 0.292893C1.31658 -0.097631 0.683418 -0.0976311 0.292893 0.292893C-0.097631 0.683417 -0.0976311 1.31658 0.292893 1.70711L1.70711 0.292893ZM18 19C18.5523 19 19 18.5523 19 18L19 9C19 8.44772 18.5523 8 18 8C17.4477 8 17 8.44772 17 9L17 17L9 17C8.44771 17 8 17.4477 8 18C8 18.5523 8.44771 19 9 19L18 19ZM0.292893 1.70711L17.2929 18.7071L18.7071 17.2929L1.70711 0.292893L0.292893 1.70711Z" fill="white"/>
</svg>
