<svg width="27" height="16" viewBox="0 0 27 16" fill="none" xmlns="http://www.w3.org/2000/svg">
<path d="M1.00287 7.00221C0.450584 7.00221 0.00286865 7.44993 0.00286865 8.00221C0.00286865 8.5545 0.450584 9.00221 1.00287 9.00221V7.00221ZM25.7516 8.70932C26.1421 8.3188 26.1421 7.68563 25.7516 7.29511L19.3876 0.931145C18.9971 0.54062 18.364 0.54062 17.9734 0.931145C17.5829 1.32167 17.5829 1.95483 17.9734 2.34536L23.6303 8.00221L17.9734 13.6591C17.5829 14.0496 17.5829 14.6828 17.9734 15.0733C18.364 15.4638 18.9971 15.4638 19.3876 15.0733L25.7516 8.70932ZM1.00287 9.00221H25.0445V7.00221H1.00287V9.00221Z" fill="white"/>
</svg>
