<svg width="27" height="16" viewBox="0 0 27 16" fill="none" xmlns="http://www.w3.org/2000/svg">
<path d="M25.0449 9.0022C25.5971 9.0022 26.0449 8.55448 26.0449 8.0022C26.0449 7.44991 25.5971 7.0022 25.0449 7.0022L25.0449 9.0022ZM0.296123 7.29509C-0.0944004 7.68562 -0.0944004 8.31878 0.296124 8.70931L6.66009 15.0733C7.05061 15.4638 7.68378 15.4638 8.0743 15.0733C8.46482 14.6827 8.46482 14.0496 8.0743 13.6591L2.41744 8.0022L8.0743 2.34534C8.46482 1.95482 8.46482 1.32166 8.0743 0.931131C7.68377 0.540607 7.05061 0.540607 6.66009 0.931131L0.296123 7.29509ZM25.0449 7.0022L1.00323 7.0022L1.00323 9.0022L25.0449 9.0022L25.0449 7.0022Z" fill="white"/>
</svg>
