<svg width="136" height="136" viewBox="0 0 136 136" fill="none" xmlns="http://www.w3.org/2000/svg">
<path d="M4.55873 75.2559L4.3054 75.9618L4.55872 75.2559C3.56417 74.899 3.43362 73.5457 4.3416 73.0052L5.3283 72.418C7.18705 71.3116 7.09983 68.5915 5.17401 67.6065L4.15172 67.0836C3.21096 66.6025 3.25454 65.2436 4.22419 64.8237L5.27788 64.3674C7.26285 63.5078 7.52418 60.7989 5.74013 59.5757L4.79309 58.9264C3.92159 58.3289 4.13858 56.9868 5.15396 56.6943L6.25736 56.3765C8.33594 55.7778 8.94154 53.1245 7.32856 51.6833L6.47232 50.9182C5.68438 50.2142 6.07123 48.9108 7.11567 48.7505L8.25065 48.5765C10.3887 48.2485 11.3286 45.6944 9.9132 44.0588L9.16183 43.1905C8.4704 42.3914 9.02074 41.1482 10.0771 41.1229L11.225 41.0953C13.3875 41.0435 14.6463 38.6306 13.4516 36.8273L12.8175 35.8701C12.2339 34.9892 12.9387 33.8266 13.9896 33.9365L15.1316 34.056C17.283 34.2811 18.84 32.049 17.8857 30.1078L17.3792 29.0773C16.913 28.129 17.7607 27.066 18.789 27.3095L19.9063 27.574C22.0112 28.0724 23.8409 26.0577 23.1427 24.0104L22.7721 22.9236C22.4311 21.9235 23.4077 20.9776 24.3964 21.3506L25.4707 21.7558C27.4946 22.5193 29.5669 20.7551 29.1363 18.6353L28.9077 17.5101C28.6973 16.4746 29.7869 15.6614 30.7198 16.1577L31.7335 16.697C33.6431 17.713 35.924 16.2283 35.768 14.0708L35.6851 12.9256C35.6089 11.8717 36.7936 11.2045 37.6553 11.816L38.5917 12.4805C40.3558 13.7324 42.8078 12.5515 42.9289 10.3918L42.9932 9.2454C43.0524 8.1904 44.3126 7.68019 45.0891 8.39688L45.9328 9.17569C47.5223 10.6428 50.1052 9.78525 50.5015 7.65879L50.7119 6.52997C50.9055 5.4912 52.2206 5.14633 52.899 5.95643L53.6363 6.83675C55.0251 8.4951 57.6964 7.97486 58.3614 5.91653L58.7144 4.82388C59.0393 3.8184 60.3877 3.64454 60.957 4.53474L61.5756 5.50211C62.7409 7.32444 65.4569 7.15008 66.3796 5.19368L66.8694 4.15515C67.3202 3.19946 68.6798 3.19946 69.1306 4.15515L69.6204 5.19368C70.5431 7.15008 73.2591 7.32444 74.4244 5.50211L75.043 4.53474C75.6123 3.64454 76.9607 3.8184 77.2856 4.82389L77.6386 5.91653C78.3036 7.97486 80.9749 8.4951 82.3637 6.83675L83.101 5.95643C83.7794 5.14633 85.0945 5.4912 85.2881 6.52997L85.4985 7.65879C85.8948 9.78525 88.4777 10.6428 90.0672 9.17569L90.9109 8.39688C91.6874 7.68018 92.9476 8.1904 93.0068 9.2454L93.0711 10.3919C93.1922 12.5515 95.6442 13.7324 97.4083 12.4805L98.3447 11.816C99.2064 11.2045 100.391 11.8717 100.315 12.9256L100.232 14.0708C100.076 16.2283 102.357 17.713 104.267 16.697L105.28 16.1577C106.213 15.6614 107.303 16.4746 107.092 17.5101L106.864 18.6353C106.433 20.7551 108.505 22.5193 110.529 21.7558L111.604 21.3506C112.592 20.9776 113.569 21.9235 113.228 22.9236L113.938 23.1657L113.228 22.9236L112.857 24.0104C112.159 26.0577 113.989 28.0724 116.094 27.574L117.211 27.3095C118.239 27.066 119.087 28.129 118.621 29.0773L118.114 30.1078C117.16 32.049 118.717 34.2811 120.868 34.056L122.01 33.9365C123.061 33.8266 123.766 34.9892 123.183 35.8701L122.548 36.8273C121.354 38.6306 122.613 41.0435 124.775 41.0953L125.923 41.1229C126.979 41.1482 127.53 42.3914 126.838 43.1905L126.087 44.0588C124.671 45.6944 125.611 48.2485 127.749 48.5765L128.884 48.7505C129.929 48.9108 130.316 50.2142 129.528 50.9182L128.671 51.6833C127.058 53.1245 127.664 55.7778 129.743 56.3765L130.846 56.6943C131.861 56.9868 132.078 58.3289 131.207 58.9264L130.26 59.5757C128.476 60.7989 128.737 63.5078 130.722 64.3674L131.776 64.8237C132.745 65.2436 132.789 66.6025 131.848 67.0836L130.826 67.6065C128.9 68.5915 128.813 71.3116 130.672 72.418L131.658 73.0052C132.566 73.5457 132.436 74.899 131.441 75.2559L130.361 75.6438C128.325 76.3744 127.89 79.061 129.592 80.396L130.496 81.1046C131.327 81.7567 131.025 83.0822 129.993 83.309L128.871 83.5555C126.758 84.0198 125.984 86.6288 127.501 88.1704L128.307 88.9888C129.048 89.7419 128.578 91.0178 127.526 91.1108L126.382 91.2118C124.227 91.4021 123.126 93.8907 124.434 95.6137L125.128 96.5283C125.767 97.37 125.138 98.5754 124.082 98.533L122.935 98.487C120.773 98.4002 119.362 100.727 120.439 102.604L121.011 103.599C121.537 104.516 120.759 105.631 119.717 105.454L118.585 105.262C116.452 104.899 114.756 107.027 115.584 109.025L116.023 110.086C116.427 111.062 115.513 112.069 114.503 111.76L113.405 111.424C111.336 110.792 109.381 112.685 109.947 114.773L110.247 115.882C110.523 116.901 109.488 117.783 108.525 117.347L107.479 116.874C105.508 115.982 103.327 117.61 103.621 119.753L103.777 120.891C103.921 121.938 102.781 122.679 101.882 122.124L100.905 121.521C99.0644 120.385 96.6931 121.72 96.7106 123.883L96.7198 125.032C96.7284 126.088 95.5034 126.678 94.6826 126.013L93.7907 125.29C92.1105 123.927 89.5879 124.949 89.3286 127.096L89.191 128.236C89.0644 129.285 87.774 129.714 87.0451 128.949L86.253 128.117C84.7607 126.551 82.1282 127.242 81.5965 129.338L81.3142 130.451C81.0545 131.476 79.7199 131.736 79.0948 130.884L78.4155 129.958C77.1358 128.214 74.4366 128.562 73.6411 130.573L73.2188 131.641C72.8302 132.624 71.4734 132.711 70.9623 131.786L70.407 130.781C69.3608 128.888 66.6392 128.888 65.593 130.781L65.0377 131.786C64.5266 132.711 63.1698 132.624 62.7812 131.641L62.3589 130.573C61.5634 128.562 58.8642 128.214 57.5845 129.958L56.9052 130.884C56.2801 131.736 54.9455 131.476 54.6858 130.451L54.4035 129.338C53.8718 127.242 51.2393 126.551 49.7471 128.117L48.9549 128.949C48.226 129.714 46.9356 129.285 46.809 128.236L46.6714 127.096C46.4121 124.949 43.8895 123.927 42.2093 125.29L41.3174 126.013C40.4966 126.678 39.2716 126.088 39.2802 125.032L39.2894 123.883C39.3069 121.72 36.9356 120.385 35.095 121.521L34.1179 122.124C33.2188 122.679 32.0793 121.938 32.2229 120.891L32.3789 119.753C32.6729 117.61 30.4918 115.982 28.521 116.874L27.4748 117.347C26.5121 117.783 25.4768 116.901 25.7531 115.882L26.0533 114.773C26.6189 112.685 24.6639 110.792 22.5953 111.424L21.4971 111.76C20.4866 112.069 19.5726 111.062 19.977 110.086L20.4165 109.025C21.2444 107.027 19.5475 104.899 17.4151 105.262L16.283 105.454C15.2413 105.631 14.4635 104.516 14.9894 103.599L15.5609 102.604C16.6376 100.727 15.2268 98.4002 13.0654 98.487L11.9181 98.533C10.8623 98.5754 10.2335 97.37 10.8723 96.5283L10.2749 96.0749L10.8723 96.5283L11.5665 95.6137C12.8742 93.8907 11.7726 91.4021 9.61788 91.2118L8.47408 91.1108C7.42152 91.0178 6.95196 89.7419 7.69317 88.9888L8.49863 88.1704C10.016 86.6288 9.24161 84.0197 7.12893 83.5555L6.00744 83.309C4.97542 83.0822 4.67287 81.7567 5.5043 81.1046L6.4078 80.396C8.10981 79.061 7.67545 76.3744 5.6395 75.6438L4.55873 75.2559Z" fill="#ED5C01" stroke="#062D3E" stroke-width="1.5"/>
<path d="M44.8302 64.9571C36.2767 64.9571 32 61.2556 32 53.8524C32 50.8238 32.8386 48.4682 34.5157 46.7857C36.3606 44.9349 38.0377 43.8413 39.5472 43.5048C41.0566 43.1683 42.3983 43 43.5723 43C49.9455 43 55.3962 45.019 59.9245 49.0571C64.4528 52.927 66.717 58.227 66.717 64.9571C66.717 79.0905 56.3187 89.4381 35.522 96V88.9333C39.7149 88.4286 43.9916 86.1571 48.3522 82.119C52.8805 77.9127 55.1447 73.2016 55.1447 67.9857C55.1447 64.9571 54.9769 63.1905 54.6415 62.6857C54.4738 62.0127 53.8029 61.6762 52.6289 61.6762C52.1258 61.6762 51.1195 62.2651 49.6101 63.4429C48.2683 64.4524 46.6751 64.9571 44.8302 64.9571ZM90.1132 64.9571C81.5597 64.9571 77.283 61.2556 77.283 53.8524C77.283 50.8238 78.1216 48.4682 79.7987 46.7857C81.6436 44.9349 83.3208 43.8413 84.8302 43.5048C86.3396 43.1683 87.6813 43 88.8553 43C95.2285 43 100.679 45.019 105.208 49.0571C109.736 52.927 112 58.227 112 64.9571C112 79.0905 101.602 89.4381 80.805 96V88.9333C84.9979 88.4286 89.2746 86.1571 93.6352 82.119C98.1635 77.9127 100.428 73.2016 100.428 67.9857C100.428 64.9571 100.26 63.1905 99.9245 62.6857C99.7568 62.0127 99.086 61.6762 97.912 61.6762C97.4088 61.6762 96.4025 62.2651 94.8931 63.4429C93.5514 64.4524 91.9581 64.9571 90.1132 64.9571Z" fill="#EBE3CC"/>
</svg>
