<svg width="190" height="639" viewBox="0 0 190 639" fill="none" xmlns="http://www.w3.org/2000/svg">
<path d="M190 0L61.75 -5.60599e-06L60.6944 6.85961L68.0833 12.6639L67.5556 23.2172L76 25.8555L83.9167 30.0768L81.8056 37.9917L87.6111 44.3237L82.3333 51.1833L80.75 58.5706L84.4444 65.4302L87.0833 72.2898L84.9722 80.2048L85.5 87.5921L90.7778 94.4517L91.8333 101.839L90.7778 109.226L91.8333 116.614L94.4722 124.001L91.8333 131.916L90.25 139.831L88.1389 147.746L91.3056 156.188L90.25 164.103L88.6667 172.018L84.4444 179.405L81.2778 186.793L78.6389 193.652L76.5278 200.512L69.6667 205.261L72.8333 213.704L68.0833 219.508L64.3889 226.895L69.1389 235.338L67.5555 243.253L58.0555 247.474L56.4722 254.861L53.3055 262.249L46.9722 266.998L44.8611 274.912L43.8055 282.3L37.4722 288.632L34.3055 296.019L38 304.462L36.9444 311.849L35.3611 319.764L30.6111 325.568L23.2222 330.317L24.8055 339.815L17.9444 344.564L17.9444 353.007L16.3611 360.394L13.7222 367.254L13.1944 375.168L4.75 380.973L10.5555 389.943L3.69444 396.803L7.91665 404.718L6.8611 412.632L1.05554 419.492L6.33332 427.935L3.69444 435.322L3.16664 442.709L5.80554 450.624L1.05554 458.012L3.16664 465.927L0.52775 473.314L5.80554 481.229L5.27776 488.616L2.11111 496.003L-2.2027e-05 503.918L3.69444 510.778L5.80553 518.165L2.63886 526.08L8.44442 532.412L3.69443 540.855L5.80553 547.714L6.86109 555.102L14.25 560.906L15.3055 568.821L11.6111 577.263L13.1944 584.651L13.1944 592.566L19.5278 599.425L19 607.34L16.3611 615.255L21.1111 622.642L19.5278 630.557L20.5833 637.945L20.5833 639L190 639L190 0Z" fill="#062D3E"/>
</svg>
