<svg width="200" height="201" viewBox="0 0 200 201" fill="none" xmlns="http://www.w3.org/2000/svg">
<path d="M101.803 57.4157C97.7485 66.6944 94.2793 76.5234 88.5117 84.8378C87.7824 85.8819 86.0233 85.2996 86.3882 83.9329C88.9217 74.023 94.0833 64.8148 98.5196 55.5818C99.5576 53.3813 102.774 55.2538 101.803 57.4157Z" fill="#ED5C01"/>
<path d="M110.847 89.3383C110.733 93.1372 110.105 96.9674 108.912 100.591C107.86 103.688 106.449 107.704 103.673 109.666C102.285 110.647 100.74 109.051 100.961 107.59C101.471 104.629 103.784 101.868 104.781 98.9808C105.9 95.8446 106.598 92.5961 106.809 89.2739C106.968 86.7823 110.967 86.7801 110.847 89.3383Z" fill="#ED5C01"/>
<path d="M99.3129 125.788C100.353 127.586 97.556 129.205 96.5158 127.406C95.4755 125.608 98.2727 123.99 99.3129 125.788Z" fill="#ED5C01"/>
<path d="M129.77 103.457C128.293 107.511 126.75 111.604 125.168 115.63C124.537 117.151 122.052 116.544 122.645 114.956C124.083 110.835 125.704 106.876 127.247 102.783C127.84 101.196 130.363 101.869 129.77 103.457Z" fill="#ED5C01"/>
<path d="M124.718 133.135C122.488 135.581 121.225 138.622 118.957 141.001C118.018 141.989 116.182 141.273 116.164 139.861C116.316 136.129 119.104 132.65 121.533 130.089C123.545 128.036 126.558 131.093 124.718 133.135Z" fill="#ED5C01"/>
<path d="M125.79 61.8501C125.659 65.9258 126.082 70.0368 124.307 73.73C123.939 74.4763 122.821 74.2341 122.569 73.4911C121.337 69.6708 122.337 65.7145 122.65 61.8C122.917 59.9567 125.875 59.8456 125.79 61.8501Z" fill="#ED5C01"/>
<path d="M79.7657 186.34C78.486 187.969 77.2063 189.599 75.9932 191.189C75.4148 191.879 74.9238 192.875 74.2017 193.47C73.4796 194.066 72.5367 194.433 71.8041 194.857C71.1382 195.242 70.1326 194.58 70.3957 193.805C70.7254 192.992 70.8729 192.018 71.3077 191.233C71.8091 190.41 72.5978 189.776 73.2429 189.047C74.6943 187.407 76.1842 185.834 77.6356 184.195C78.9258 182.737 80.9507 184.855 79.7657 186.34Z" fill="#ED5C01"/>
<path d="M136.434 28.3151C136.234 30.1199 135.995 31.8581 135.546 33.5401C135.283 34.3145 134.561 34.91 133.769 34.9238C133.043 34.899 132.115 34.3695 131.996 33.5494C131.838 32.6627 131.681 31.776 131.695 30.8789C131.748 30.0483 131.696 29.1897 131.749 28.3592C131.742 27.1186 132.843 25.9484 134.122 26.0084C135.257 25.9737 136.666 27.0255 136.434 28.3151Z" fill="#ED5C01"/>
<path d="M149.734 42.3974C149.575 44.8891 149.417 47.3807 149.191 49.9109C149.012 52.0591 149.158 54.4633 148.243 56.415C147.696 57.6204 145.909 57.1432 145.569 56.0952C144.995 54.0274 145.364 51.5918 145.543 49.4436C145.674 47.0571 145.843 44.7372 145.973 42.3506C146.104 39.9641 149.931 39.9723 149.734 42.3974Z" fill="#ED5C01"/>
<path d="M104.634 13.9121C107.163 19.2047 110.956 25.4545 111.693 31.3388C111.875 33.1893 109.432 33.2691 108.606 32.1474C106.847 29.8759 105.972 26.8267 104.946 24.1314C103.833 21.1311 102.719 18.1309 101.739 15.0536C101.158 13.4343 103.881 12.3033 104.634 13.9121Z" fill="#ED5C01"/>
<path d="M142.154 111.494C141.561 113.081 140.968 114.668 140.375 116.256C139.839 117.633 139.379 119.143 138.489 120.369C138.043 120.982 136.943 120.463 136.968 119.738C137.084 118.249 137.792 116.861 138.329 115.484C138.894 114.002 139.459 112.519 140.023 111.037C140.521 109.594 142.624 110.155 142.154 111.494Z" fill="#ED5C01"/>
<path d="M131.957 148.414C130.491 150.95 129.13 153.515 127.195 155.701C126.806 156.104 126.021 155.669 126.162 155.144C127.13 152.362 128.672 149.958 130.138 147.421C130.829 146.31 132.647 147.303 131.957 148.414Z" fill="#ED5C01"/>
<path d="M106.64 170.26C106.679 170.326 106.612 170.365 106.64 170.26C106.573 170.298 106.64 170.26 106.64 170.26Z" fill="#ED5C01"/>
<path d="M108.172 180.129C105.568 182.08 102.672 184.91 99.6055 186.062C98.5961 186.469 98.0638 185.088 98.6423 184.398C99.7046 183.161 101.236 182.275 102.558 181.332C104.079 180.274 105.534 179.255 107.055 178.197C108.282 177.399 109.361 179.263 108.172 180.129Z" fill="#ED5C01"/>
<path d="M70.5086 71.6968C70.4239 73.7014 70.3672 75.6008 70.2824 77.6053C70.2153 79.3331 70.1586 81.2325 69.4992 82.8584C69.0187 84.0252 67.3367 83.5761 66.9971 82.5281C66.4825 80.8703 66.7775 78.9219 66.9497 77.2223C67.1116 75.3509 67.2734 73.4796 67.4352 71.6082C67.4534 69.6422 70.6215 69.5871 70.5086 71.6968Z" fill="#ED5C01"/>
<path d="M142.968 81.8662C143.777 83.2647 141.646 84.4976 140.837 83.0991C140.066 81.7671 142.198 80.5342 142.968 81.8662Z" fill="#ED5C01"/>
</svg>
