<svg width="63" height="46" viewBox="0 0 63 46" fill="none" xmlns="http://www.w3.org/2000/svg">
<path d="M11.8858 38.0783C13.9379 24.4227 25.0537 13.302 36.3594 13.304C36.4251 13.6525 36.5721 14.0921 36.4645 14.4301C34.6349 20.1752 37.0587 24.6299 40.9921 28.574C44.0196 31.6875 47.517 34.2268 51.6997 35.516C52.8969 35.8475 54.0942 36.1791 55.3939 36.2586C60.1541 36.6356 62.6613 34.0326 62.4299 29.2813C62.2773 26.0851 60.8751 23.4154 58.9372 20.9714C55.6313 16.7212 51.3041 13.5283 46.2209 11.3227C45.2021 10.9159 44.1834 10.5091 42.7419 9.90425C47.6854 4.43558 54.37 3.20763 60.7657 1.01457C59.6393 0.94573 58.5234 0.705268 57.3866 0.808049C51.5028 1.74042 45.9997 3.55737 41.5786 7.59374C40.2921 8.72095 39.1133 9.51022 37.2072 9.39372C29.8372 9.02942 23.6594 11.9249 18.477 17.0344C14.5914 20.8451 11.6223 25.3147 9.5747 30.3575C9.06281 31.6182 8.55092 32.8788 7.64526 34.8907C5.2767 30.9561 3.22324 27.5576 1.16979 24.1591C0.904608 24.229 0.634186 24.3848 0.369009 24.4547C0.240407 25.1359 -0.0719672 25.9781 0.151254 26.5947C1.18596 29.5864 2.22066 32.5781 3.43389 35.4946C4.57622 38.1483 5.89708 40.7269 7.03941 43.3806C8.18698 45.9486 9.53657 46.634 11.3087 44.6751C14.383 41.3316 17.1264 37.7095 19.9565 34.0927C20.3345 33.599 20.0456 32.6339 20.0062 31.8563C19.1293 31.975 18.0081 31.8203 17.4568 32.3034C15.5219 34.0801 13.9283 35.9637 11.8858 38.0783ZM39.9223 13.3494C48.3243 15.3272 54.668 19.6769 58.4572 27.402C59.224 29.0853 59.7913 31.1872 58.1531 32.379C57.0609 33.1736 54.9709 33.2181 53.5085 32.9565C47.9291 31.7541 43.7857 28.4002 40.4036 23.973C38.0745 20.8161 37.494 17.5076 39.9223 13.3494Z" fill="#189CAB"/>
</svg>
