<svg width="70" height="74" viewBox="0 0 70 74" fill="none" xmlns="http://www.w3.org/2000/svg">
<g clip-path="url(#clip0_1_771)">
<path fill-rule="evenodd" clip-rule="evenodd" d="M49.3496 43.1446C53.6636 42.5811 57.7478 40.3016 61.4747 36.3189C61.7399 36.0547 61.9393 35.7315 62.0568 35.3755C62.1743 35.0195 62.2066 34.6408 62.1512 34.27C67.0331 28.3536 69.9814 20.1513 69.9814 13.8955C69.9814 4.21408 65.3292 3.18958 57.7287 1.59522H57.6138C57.3888 1.12141 57.0355 0.720665 56.5943 0.438737C56.1531 0.156809 55.6417 0.00507654 55.1186 0.000872871C54.7364 -0.0146877 54.3551 0.0475591 53.9975 0.183851C53.6399 0.320142 53.3136 0.527665 53.0381 0.793906C52.7626 1.06015 52.5437 1.3796 52.3945 1.73301C52.2454 2.08641 52.1691 2.46646 52.1703 2.85024C52.1703 4.32934 53.4147 5.46908 55.1186 5.46908C55.7309 5.45619 56.325 5.2575 56.8225 4.8992C64.3082 6.49356 66.3567 6.94818 66.3567 13.8955C66.3567 19.3573 63.5104 26.7592 59.3369 32.1058C58.9701 32.1026 58.6073 32.1827 58.2758 32.3402C57.9442 32.4977 57.6525 32.7283 57.4224 33.015C55.1505 35.2945 51.7491 38.1374 47.55 38.1374C43.4658 38.1374 39.9495 35.2945 37.7925 33.015C37.2795 32.4972 36.6023 32.1756 35.878 32.1058C31.6789 26.7592 28.8582 19.3573 28.8582 13.8955C28.8582 6.94818 30.7727 6.49356 38.2775 4.8992C38.8177 5.25816 39.4485 5.4558 40.0963 5.46908C40.8316 5.50943 41.5531 5.25699 42.1039 4.76662C42.6548 4.27625 42.9905 3.58758 43.0382 2.85024C43.0214 2.08201 42.7029 1.35153 42.1519 0.817863C41.6009 0.284196 40.8621 -0.00944405 40.0963 0.000872871C39.5574 0.00503816 39.0296 0.155448 38.569 0.436139C38.1083 0.716829 37.732 1.11733 37.4798 1.59522C29.7708 3.18958 25.1186 4.21408 25.1186 13.8955C25.1186 20.1513 28.1818 28.3536 33.0574 34.3852C33.0194 34.7277 33.0507 35.0744 33.1494 35.4044C33.248 35.7345 33.4121 36.0412 33.6317 36.3061C37.3713 40.2888 41.3407 42.5641 45.5398 43.1318L45.4249 55.2976C45.4249 63.724 38.1627 70.556 29.2029 70.556C20.2431 70.556 12.8659 63.724 12.8659 55.2976V44.6237C18.0861 43.8297 22.0554 39.6229 22.0554 34.4941C22.0554 28.917 17.065 24.2492 11.0471 24.2492C5.02927 24.2492 0.0452271 28.9106 0.0452271 34.4941C0.0452271 39.6165 4.01459 43.8297 9.23476 44.6237V55.3296C9.23476 65.6897 18.169 74.0009 29.2029 74.0009C40.2367 74.0009 49.171 65.6769 49.171 55.3296V43.1638L49.3496 43.1446Z" fill="#062D3E"/>
<path fill-rule="evenodd" clip-rule="evenodd" d="M11.0019 41.4414C12.8825 41.4844 14.7033 40.7771 16.0648 39.4746C17.4263 38.1722 18.2173 36.381 18.2641 34.4941C18.2641 30.7419 14.9712 27.6685 11.0019 27.6685C6.91761 27.6685 3.73956 30.7419 3.73956 34.4941C3.73956 38.3679 6.93038 41.4414 11.0019 41.4414Z" fill="#FBBD08"/>
</g>
<defs>
<clipPath id="clip0_1_771">
<rect width="70" height="74" fill="white" transform="translate(0.000305176 0.000976562)"/>
</clipPath>
</defs>
</svg>
