<svg width="108" height="213" viewBox="0 0 108 213" fill="none" xmlns="http://www.w3.org/2000/svg">
<g clip-path="url(#clip0_1_809)">
<path d="M108.552 -5.75018C108.154 -5.5518 107.756 -5.28729 107.359 -4.95665C105.768 -3.76635 104.642 -1.98091 103.316 -0.393844C100.997 2.5819 98.2796 5.16088 95.2974 7.21083C95.0986 8.7979 93.7731 10.0543 92.3815 10.0543C92.3152 11.2446 92.1827 12.3688 92.1164 13.5591C88.4052 18.0558 85.4893 23.4782 83.7 29.2975C82.971 29.3636 82.1758 29.4958 81.4468 29.6281C80.0551 32.6038 78.7297 35.5135 77.338 38.4892C76.5428 38.6876 75.8801 39.3489 75.2174 40.0101C73.8919 41.3988 72.5665 42.7875 71.8375 44.6391C70.9098 47.0197 71.1748 49.8632 70.2471 52.2438C69.7169 53.5002 68.9216 54.5582 68.524 55.8146C68.1927 56.8727 68.2589 58.1291 68.8554 58.9888C68.7228 59.3194 68.524 59.5839 68.3915 59.9146C66.4696 60.9065 64.8129 62.5597 63.7525 64.7419C63.2224 65.0064 62.6259 65.2709 62.0958 65.4693C61.0354 66.9902 59.9751 68.5112 58.9148 70.0321C57.9207 70.0982 56.9266 70.2305 55.9326 70.2966C54.7397 71.6853 53.6131 73.074 52.4202 74.5288C53.8119 74.8594 55.1373 75.2562 56.529 75.6529C56.6616 76.4465 56.3965 77.3061 55.8663 77.9013C55.9326 79.819 55.9988 81.7367 56.0651 83.6544C55.6012 84.5802 55.0711 85.5721 54.6072 86.4979L53.7456 88.2172C53.5468 88.6801 53.2817 89.143 53.0829 89.5397C53.0829 89.6059 53.0167 89.672 53.0167 89.672C51.3599 89.143 49.7031 89.0769 48.0464 89.4075C48.5765 91.1268 49.173 92.78 49.7031 94.4993C48.1789 97.0783 46.6547 99.7234 45.1305 102.302C45.8594 103.427 44.9979 105.08 43.8713 105.477C42.7447 105.873 41.5518 105.344 40.4252 104.881C40.9554 107.196 40.4252 109.775 39.0998 111.56C39.8951 111.957 39.9613 113.28 39.5637 114.139C39.1661 114.999 38.3708 115.528 37.7744 116.123C35.9188 117.975 34.9248 120.686 33.9307 123.265C33.3343 124.918 32.7378 126.571 32.1414 128.224C30.6834 132.258 27.3699 133.382 25.6469 137.284C25.4481 137.747 25.9782 139.4 26.2433 140.656C25.9119 141.318 25.5143 141.913 25.183 142.574C25.0504 142.64 24.9842 142.64 24.8516 142.706C23.4599 143.235 21.9357 146.013 21.8694 146.013C21.8694 146.013 21.5381 147.071 21.4718 147.997L21.2067 147.93C21.2067 147.005 21.273 146.079 21.3393 145.153C21.3393 144.822 21.4055 144.492 21.4055 144.161C21.5381 142.177 21.7369 140.127 22.002 138.144C22.0682 137.747 22.0682 137.35 22.1345 137.019C22.2008 136.623 22.2671 136.226 22.2671 135.895C22.5321 133.911 22.8635 131.928 23.1286 129.944C23.2611 129.282 23.3274 128.687 23.4599 128.092C23.6587 126.77 23.9238 125.381 24.1889 124.058C24.3214 123.199 24.5203 122.339 24.7191 121.479C24.8516 120.686 25.0504 119.892 25.2492 119.099C25.2492 119.033 25.2492 118.967 25.3155 118.9C25.8457 116.321 26.5084 113.742 27.1048 111.163C27.1711 111.031 27.1711 110.833 27.2374 110.634C27.3699 109.973 27.5687 109.378 27.7675 108.717C27.9001 108.254 28.0326 107.791 28.0989 107.328C28.2977 106.535 28.5628 105.741 28.7616 104.947C29.1592 103.559 29.5568 102.236 29.9545 100.848C30.3521 99.525 30.7497 98.2025 31.2136 96.8138C31.4787 95.9541 31.7438 95.1606 32.0089 94.3009C32.2739 93.4413 32.539 92.6477 32.8704 91.7881C36.9129 79.8851 41.8169 68.2466 47.5825 57.2033C48.444 55.5501 49.3055 53.8969 50.167 52.3099C50.2333 52.1776 50.2996 52.0454 50.3658 51.9792C50.6972 51.318 51.0948 50.6567 51.4262 50.0615L52.0889 48.9374C54.4084 44.9036 56.8604 41.0021 59.3787 37.1667C60.5053 35.4473 61.6981 33.7941 62.891 32.141C63.1561 31.7442 63.4874 31.3474 63.7525 30.9507C64.5478 29.8926 65.343 28.8346 66.1383 27.7765C68.524 24.7347 70.976 21.7589 73.5606 18.9816C76.0789 16.1381 78.8622 13.493 81.6456 10.914C83.0373 9.65756 84.4953 8.46726 85.9532 7.21083C86.6822 6.61568 87.4112 6.02054 88.1401 5.49152L90.3933 3.83832C91.1886 3.3093 91.9176 2.71416 92.7128 2.25126C93.5081 1.78837 94.3033 1.25935 95.0986 0.796453C96.6891 -0.129334 98.2133 -1.12125 99.9363 -1.91478C100.665 -2.31155 101.461 -2.64218 102.19 -3.03895C102.256 -3.03895 102.322 -3.10508 102.388 -3.10508C103.184 -3.50184 104.045 -3.89861 104.907 -4.16312C106.033 -4.89052 107.292 -5.35342 108.552 -5.75018Z" fill="#189CAB"/>
<path d="M108.552 -5.75018C108.154 -5.5518 107.756 -5.28729 107.359 -4.95665C105.768 -3.76635 104.642 -1.98091 103.316 -0.393844C100.997 2.5819 98.2796 5.16088 95.2974 7.21083C95.0986 8.7979 93.7731 10.0543 92.3815 10.0543C92.3152 11.2446 92.1827 12.3688 92.1164 13.5591C88.4052 18.0558 85.4893 23.4782 83.7 29.2975C82.971 29.3636 82.1758 29.4958 81.4468 29.6281C80.0551 32.6038 78.7297 35.5135 77.338 38.4892C76.5428 38.6876 75.8801 39.3489 75.2174 40.0101C73.8919 41.3988 72.5665 42.7875 71.8375 44.6391C70.9098 47.0197 71.1748 49.8632 70.2471 52.2438C69.7169 53.5002 68.9216 54.5582 68.524 55.8146C68.1927 56.8727 68.2589 58.1291 68.8554 58.9888C68.7228 59.3194 68.524 59.5839 68.3915 59.9146C66.4696 60.9065 64.8129 62.5597 63.7525 64.7419C63.2224 65.0064 62.6259 65.2709 62.0958 65.4693C61.0354 66.9902 59.9751 68.5112 58.9148 70.0321C57.9207 70.0982 56.9266 70.2305 55.9326 70.2966C54.7397 71.6853 53.6131 73.074 52.4202 74.5288C53.8119 74.8594 55.1373 75.2562 56.529 75.6529C56.6616 76.4465 56.3965 77.3061 55.8663 77.9013C55.9326 79.819 55.9988 81.7367 56.0651 83.6544C55.6012 84.5802 55.0711 85.5721 54.6072 86.4979L53.7456 88.2172C53.5468 88.6801 53.2817 89.143 53.0829 89.5397C53.0829 89.6059 53.0167 89.672 53.0167 89.672C51.3599 89.143 49.7031 89.0769 48.0464 89.4075C48.5765 91.1268 49.173 92.78 49.7031 94.4993C48.1789 97.0783 46.6547 99.7234 45.1305 102.302C45.8594 103.427 44.9979 105.08 43.8713 105.477C42.7447 105.873 41.5518 105.344 40.4252 104.881C40.9554 107.196 40.4252 109.775 39.0998 111.56C39.8951 111.957 39.9613 113.28 39.5637 114.139C39.1661 114.999 38.3708 115.528 37.7744 116.123C35.9188 117.975 34.9248 120.686 33.9307 123.265C33.3343 124.918 32.7378 126.571 32.1414 128.224C30.6834 132.258 27.3699 133.382 25.6469 137.284C25.4481 137.747 25.9782 139.4 26.2433 140.656C25.9119 141.318 25.5143 141.913 25.183 142.574C25.0504 142.64 24.9842 142.64 24.8516 142.706C23.4599 143.235 21.9357 146.013 21.8694 146.013C21.8694 146.013 21.5381 147.071 21.4718 147.997L21.2067 147.93C21.2067 147.005 21.273 146.079 21.3393 145.153C21.3393 144.822 21.4055 144.492 21.4055 144.161C21.5381 142.177 21.7369 140.127 22.002 138.144C22.0682 137.747 22.0682 137.35 22.1345 137.019C22.0682 136.027 22.002 135.036 21.8032 134.044C21.6044 133.184 21.4055 132.324 21.5381 131.399C21.7369 130.076 22.6647 129.084 23.4599 128.026C23.725 126.703 23.9238 125.315 24.1889 123.992C24.3214 123.133 24.5203 122.273 24.7191 121.413C24.8516 120.62 25.0504 119.826 25.2492 119.033C25.2492 118.967 25.2492 118.9 25.3155 118.834C25.0504 117.446 24.454 116.189 23.725 115.065C24.6528 113.544 25.8457 112.155 27.1711 111.097C27.2374 110.965 27.2374 110.767 27.3036 110.568C27.4362 109.907 27.635 109.312 27.8338 108.651C27.9663 108.188 28.0989 107.725 28.1652 107.262C28.364 106.468 28.629 105.675 28.8279 104.881C28.1652 101.972 29.1592 98.5992 31.2136 96.8138C31.4787 95.9541 31.7438 95.1606 32.0089 94.3009C32.2739 93.4413 32.539 92.6477 32.8704 91.7881C32.7378 91.2591 32.7378 90.6639 32.7378 90.1349C33.0029 86.8946 33.997 83.7866 35.6537 81.1415C36.3827 79.9512 37.3105 78.8932 37.8407 77.5706C39.0998 74.661 38.7022 70.9579 40.4915 68.445C41.2205 67.4531 42.2145 66.7257 42.6784 65.6015C43.6062 63.5516 42.8772 60.5758 44.4677 59.2533C44.9316 58.8565 45.5281 58.7243 45.9257 58.1952C46.5884 57.2033 45.8594 55.6824 46.1908 54.4921C46.6547 52.8389 48.6428 52.7728 50.167 52.3099C50.2333 52.1776 50.2996 52.0454 50.3658 51.9792C50.6972 51.318 51.0948 50.6567 51.4262 50.0615L52.0889 48.9374V48.8712C52.2214 46.6229 53.8782 44.9036 55.1373 43.2504C56.3965 41.5311 57.3905 38.9521 56.2639 37.1005C57.0592 37.5634 57.987 36.5715 58.3846 35.5796C58.7822 34.5877 59.0473 33.3974 59.8426 32.9345C60.5053 32.5377 61.2342 32.7361 61.9632 32.6038C62.3608 32.5377 62.6922 32.3393 62.9573 32.141C63.2224 31.7442 63.5537 31.3474 63.8188 30.9507C64.4152 29.6942 64.4152 28.041 63.4874 27.0491C65.4093 26.5201 66.801 24.1395 66.4696 21.8912C67.795 23.0153 69.5181 21.3622 70.4459 19.8412C72.5665 16.601 74.6872 13.4268 76.8079 10.1866C77.2717 9.5253 77.7356 8.7979 78.3983 8.46726C79.6575 7.80598 81.248 8.59951 82.4409 7.80598C83.0373 7.40922 83.3687 6.68181 83.7663 6.02054C86.2846 2.25126 91.2549 2.31739 94.6347 -0.393844C95.8938 -1.38576 96.8879 -2.84057 98.2133 -3.70023C99.5387 -4.62601 101.328 -4.95665 102.521 -3.76635C102.388 -3.50184 102.322 -3.30346 102.19 -3.10508C102.256 -3.10508 102.322 -3.17121 102.388 -3.17121C103.184 -3.56797 104.045 -3.96474 104.907 -4.22925C106.033 -4.89052 107.292 -5.35342 108.552 -5.75018Z" fill="#189CAB"/>
<path d="M56.1973 7.01245C55.9322 7.14471 55.6671 7.34309 55.402 7.54147C54.4079 8.335 53.6127 9.45917 52.8174 10.4511C51.2932 12.3688 49.5702 14.022 47.6483 15.3445C47.5158 16.3364 46.6543 17.1961 45.7928 17.1961C45.7265 17.9235 45.6602 18.6509 45.5939 19.4444C43.2082 22.3541 41.3526 25.7927 40.1597 29.562C39.6959 29.6281 39.1657 29.6942 38.7018 29.7604C37.8403 31.6781 36.9125 33.5296 36.051 35.4473C35.5208 35.5796 35.1232 35.9764 34.7255 36.4393C33.864 37.2989 33.0025 38.2247 32.5386 39.415C31.9422 40.9359 32.141 42.7875 31.5446 44.3084C31.2132 45.102 30.683 45.7632 30.418 46.6229C30.2191 47.2842 30.2191 48.1438 30.6168 48.6729C30.4842 48.8713 30.418 49.0696 30.2854 49.268C29.0263 49.8632 27.9659 50.9873 27.3032 52.376C26.9719 52.5083 26.5742 52.7067 26.2429 52.8389C25.5802 53.8308 24.8512 54.8227 24.1885 55.7485C23.5258 55.8146 22.9294 55.8808 22.2667 55.9469C21.5377 56.8727 20.7424 57.7324 20.0134 58.6581C20.875 58.9227 21.8028 59.121 22.6643 59.3855C22.7305 59.9146 22.598 60.4436 22.2667 60.8403L22.3992 64.5435C22.0678 65.1386 21.7365 65.7338 21.4714 66.3951C21.0075 66.9241 20.6099 67.5854 20.4773 68.3789C20.4773 68.3789 20.4773 68.445 20.4111 68.5112C19.3507 68.1805 18.2904 68.1144 17.2301 68.3128C17.5614 69.4369 17.9591 70.495 18.2904 71.553C17.2964 73.2062 16.3023 74.9255 15.3745 76.5787C15.8384 77.3061 15.3082 78.3642 14.5793 78.6287C13.8503 78.8932 13.055 78.5626 12.326 78.2319C12.6574 79.6867 12.326 81.3399 11.4645 82.5302C11.9947 82.7947 11.9947 83.6544 11.7296 84.1834C11.4645 84.7124 11.0006 85.0431 10.5367 85.506C9.34386 86.6963 8.68116 88.4156 8.08472 90.0688C7.6871 91.1268 7.28947 92.1848 6.95812 93.2429C6.03033 95.8219 3.90967 96.5493 2.78306 99.0621C2.65052 99.3266 2.98188 100.385 3.18069 101.178C2.91561 101.575 2.71679 101.972 2.45171 102.435C2.38544 102.435 2.31917 102.501 2.2529 102.501C1.39138 102.831 0.397319 104.617 0.331048 104.617C0.331048 104.617 0.132236 105.278 0.0659655 105.939L-0.000305176 105.807C-0.000305176 105.146 0.0659655 104.485 0.0659655 103.823C0.0659655 103.493 0.132236 103.162 0.132236 102.831C0.132236 102.501 0.198507 102.104 0.198507 101.773C0.198507 101.443 0.264778 101.178 0.264778 100.848C0.264778 100.649 0.331048 100.451 0.331048 100.252C0.331048 99.9879 0.397319 99.7895 0.397319 99.525C0.397319 99.2605 0.46359 98.9299 0.52986 98.6654C0.52986 98.4008 0.596131 98.1363 0.596131 97.938C0.728673 96.6154 0.927485 95.359 1.19257 94.1026C1.25884 93.7058 1.32511 93.309 1.39138 92.9123C1.52392 92.0526 1.72273 91.1929 1.85527 90.3333C2.05409 89.2091 2.31917 88.0849 2.51798 87.0269C2.84934 85.3737 3.24696 83.7205 3.71085 82.0673C3.8434 81.406 4.04221 80.7448 4.24102 80.0835C4.43983 79.4222 4.57237 78.7609 4.77119 78.0997C5.03627 77.24 5.30135 76.3803 5.50016 75.4546C5.76525 74.5949 6.03033 73.7352 6.29541 72.8756C6.62677 71.8175 6.95812 70.6934 7.35574 69.6353C9.9403 61.9645 13.1213 54.5582 16.7662 47.4164C17.2963 46.3584 17.8928 45.3004 18.423 44.2423C18.4892 44.1762 18.5555 44.0439 18.5555 43.9778C18.8206 43.5149 19.0194 43.1181 19.2845 42.6552C19.417 42.4569 19.4833 42.2585 19.6158 42.0601C21.0738 39.4811 22.6643 36.9683 24.321 34.5216C25.05 33.3974 25.779 32.3393 26.5742 31.2813C26.7731 31.0168 26.9719 30.7523 27.1044 30.4878C27.6346 29.8265 28.0985 29.0991 28.6286 28.4378C30.1529 26.5201 31.7434 24.6024 33.4001 22.7508C35.0569 20.8993 36.7799 19.2461 38.5692 17.5267C39.497 16.7332 40.4248 15.9397 41.3526 15.1462C41.8165 14.7494 42.2804 14.4187 42.8106 14.022L44.2685 12.9639C44.7987 12.6333 45.2626 12.2365 45.7265 11.9059C46.2566 11.5753 46.7205 11.2446 47.2507 10.9801C48.2448 10.385 49.2388 9.72369 50.3654 9.26079C50.8293 8.99628 51.3595 8.7979 51.8234 8.53339C51.8897 8.53339 51.8897 8.46726 51.9559 8.46726C52.4861 8.20275 53.0163 7.93824 53.5464 7.80598C54.5405 7.6076 55.402 7.27696 56.1973 7.01245Z" fill="#189CAB"/>
<path d="M56.1973 7.01245C55.9322 7.14471 55.6671 7.34309 55.402 7.54147C54.4079 8.335 53.6127 9.45917 52.8174 10.4511C51.2932 12.3688 49.5702 14.022 47.6483 15.3445C47.5158 16.3364 46.6543 17.1961 45.7928 17.1961C45.7265 17.9235 45.6602 18.6509 45.5939 19.4444C43.2082 22.3541 41.3526 25.7927 40.1597 29.562C39.6959 29.6281 39.1657 29.6942 38.7018 29.7604C37.8403 31.6781 36.9125 33.5296 36.051 35.4473C35.5208 35.5796 35.1232 35.9764 34.7255 36.4393C33.864 37.2989 33.0025 38.2247 32.5386 39.415C31.9422 40.9359 32.141 42.7875 31.5446 44.3084C31.2132 45.102 30.683 45.7632 30.418 46.6229C30.2191 47.2842 30.2191 48.1438 30.6168 48.6729C30.4842 48.8713 30.418 49.0696 30.2854 49.268C29.0263 49.8632 27.9659 50.9873 27.3032 52.376C26.9719 52.5083 26.5742 52.7067 26.2429 52.8389C25.5802 53.8308 24.8512 54.8227 24.1885 55.7485C23.5258 55.8146 22.9294 55.8808 22.2667 55.9469C21.5377 56.8727 20.7424 57.7324 20.0134 58.6581C20.875 58.9227 21.8028 59.121 22.6643 59.3855C22.7305 59.9146 22.598 60.4436 22.2667 60.8403L22.3992 64.5435C22.0678 65.1386 21.7365 65.7338 21.4714 66.3951C21.0075 66.9241 20.6099 67.5854 20.4773 68.3789C20.4773 68.3789 20.4773 68.445 20.4111 68.5112C19.3507 68.1805 18.2904 68.1144 17.2301 68.3128C17.5614 69.4369 17.9591 70.495 18.2904 71.553C17.2964 73.2062 16.3023 74.9255 15.3745 76.5787C15.8384 77.3061 15.3082 78.3642 14.5793 78.6287C13.8503 78.8932 13.055 78.5626 12.326 78.2319C12.6574 79.6867 12.326 81.3399 11.4645 82.5302C11.9947 82.7947 11.9947 83.6544 11.7296 84.1834C11.4645 84.7124 11.0006 85.0431 10.5367 85.506C9.34386 86.6963 8.68116 88.4156 8.08472 90.0688C7.6871 91.1268 7.28947 92.1848 6.95812 93.2429C6.03033 95.8219 3.90967 96.5493 2.78306 99.0621C2.65052 99.3266 2.98188 100.385 3.18069 101.178C2.91561 101.575 2.71679 101.972 2.45171 102.435C2.38544 102.435 2.31917 102.501 2.2529 102.501C1.39138 102.831 0.397319 104.617 0.331048 104.617C0.331048 104.617 0.132236 105.278 0.0659655 105.939L-0.000305176 105.807C-0.000305176 105.146 0.0659655 104.485 0.0659655 103.823C0.0659655 103.493 0.132236 103.162 0.132236 102.831C0.132236 102.501 0.198507 102.104 0.198507 101.773C0.198507 101.443 0.264778 101.178 0.264778 100.848C0.264778 100.649 0.331048 100.451 0.331048 100.252C0.331048 99.9879 0.397319 99.7895 0.397319 99.525C0.397319 99.2605 0.46359 98.9299 0.52986 98.6654C0.46359 98.0041 0.397319 97.3428 0.331048 96.7477C0.198507 96.2186 0.0659655 95.6235 0.198507 95.0945C0.331048 94.2348 0.927485 93.5735 1.45765 92.9123C1.59019 92.0526 1.789 91.1929 1.92155 90.3333C2.12036 89.2091 2.38544 88.0849 2.58425 87.0269C2.38544 86.1672 2.05409 85.3076 1.52392 84.5802C2.12036 83.5883 2.84934 82.7286 3.71085 82.0673C3.8434 81.406 4.04221 80.7448 4.24102 80.0835C4.43983 79.4222 4.57237 78.7609 4.77119 78.0997C4.37356 76.2481 4.97 74.0659 6.29541 72.8756C6.62677 71.8175 6.95812 70.6934 7.35574 69.6353C7.2232 69.3047 7.28947 68.9079 7.28947 68.5773C7.42201 66.5273 8.08472 64.4774 9.14505 62.8242C9.60895 62.0306 10.2054 61.3694 10.5367 60.5097C11.332 58.6581 11.0669 56.2775 12.1935 54.6244C12.6574 53.9631 13.3201 53.5002 13.6515 52.7728C14.2479 51.4502 13.784 49.5325 14.8443 48.6729C15.1757 48.4084 15.507 48.3422 15.7721 48.0116C16.236 47.3503 15.7059 46.3584 15.9047 45.631C16.236 44.5729 17.4952 44.5729 18.423 44.2423C18.4892 44.1762 18.5555 44.0439 18.5555 43.9778C18.8206 43.5149 19.0194 43.1181 19.2845 42.6552C19.417 42.4569 19.4833 42.2585 19.6158 42.0601C19.6158 42.0601 19.6158 42.0601 19.6158 41.994C19.6821 40.5392 20.7424 39.4811 21.5377 38.357C22.3329 37.2328 22.9956 35.5796 22.2667 34.3893C22.7968 34.7199 23.3933 34.0587 23.5921 33.3974C23.7909 32.7361 23.9897 32.0087 24.5199 31.6781C24.9175 31.4135 25.3814 31.5458 25.8453 31.4797C26.1104 31.4136 26.3092 31.3474 26.508 31.149C26.7068 30.8845 26.9056 30.62 27.0381 30.3555C27.4358 29.562 27.4358 28.5039 26.8393 27.8427C28.0985 27.512 28.96 25.9911 28.7612 24.5363C29.6227 25.2637 30.683 24.2056 31.3457 23.2137C32.7374 21.1638 34.0628 19.0477 35.4545 16.9977C35.7196 16.5348 36.051 16.1381 36.4486 15.8736C37.2438 15.4768 38.3042 15.9397 39.0331 15.4768C39.4308 15.2123 39.6296 14.7494 39.8947 14.3526C41.5514 11.9059 44.7324 11.972 46.8531 10.1866C47.6483 9.5253 48.311 8.66564 49.1726 8.07049C50.0341 7.47535 51.1607 7.27696 51.8897 8.00437C51.8234 8.13662 51.7571 8.335 51.6908 8.46726C51.7571 8.46726 51.7571 8.40113 51.8234 8.40113C52.3536 8.13662 52.8837 7.87211 53.4139 7.73986C54.5405 7.6076 55.402 7.27696 56.1973 7.01245Z" fill="#189CAB"/>
<path d="M178.931 -15.6032C175.087 -14.0823 171.774 -10.7759 168.858 -7.33725C158.983 4.30121 151.627 18.5848 141.223 29.6281C140.295 35.9763 136.584 41.7956 131.614 44.5729C129.095 45.6971 126.312 45.8955 123.661 45.102C124.788 46.6229 125.848 48.21 126.975 49.7309C124.92 50.326 124.854 53.6324 124.854 56.0791C124.788 65.2048 118.823 72.6111 113.986 79.819C108.816 87.4898 104.575 95.888 100.334 104.286C99.2735 106.402 98.2132 108.452 97.1528 110.568C94.3694 116.123 90.592 122.339 85.0253 122.604C83.6336 122.67 82.1756 122.339 80.9165 122.934C79.6573 123.529 78.7958 125.645 79.7899 126.77C83.0372 125.579 85.8868 129.811 86.7483 133.647C87.6098 137.086 86.8146 142.243 83.6999 142.243C83.5673 143.698 83.4348 145.153 83.3022 146.542C79.2597 150.509 75.2172 154.543 71.1747 158.511C71.9699 161.288 71.8374 164.396 70.8433 167.107C69.054 169.091 65.873 169.025 64.15 166.909C64.0837 169.224 64.0837 171.472 64.0175 173.786C63.0234 173.919 62.1619 174.448 61.4329 175.175C62.1619 176.233 62.9571 177.291 63.6861 178.349C61.6317 182.846 59.511 187.409 57.4567 191.905C55.8662 195.344 54.2757 198.783 52.3538 201.957C51.3598 203.544 49.8355 204.8 48.1788 203.941C48.1788 206.387 48.1788 209.032 48.8415 211.215C48.5101 211.81 48.1125 212.339 47.7811 212.934L46.9196 212.603C47.0522 207.115 47.5823 201.692 48.245 196.336C48.1788 194.815 48.0462 193.294 47.7149 191.839C47.4498 190.583 47.1184 189.26 47.3172 187.938C47.5823 186.02 48.9077 184.631 50.0343 183.11C49.1728 182.581 48.1788 182.251 47.251 182.185C49.3054 178.217 50.697 173.786 51.2935 169.157C51.426 168.099 51.4923 167.041 51.8899 166.049C51.4923 165.19 51.0284 164.33 50.4982 163.537C51.8236 161.354 53.4141 159.437 55.2697 157.916C55.4023 155.535 54.8058 153.155 53.4804 151.303C54.4745 151.038 55.4685 150.708 56.4626 150.443C56.5951 149.187 57.1253 148.063 57.7217 147.005C57.3904 143.566 58.517 139.863 60.6377 137.416C60.7702 134.837 60.3726 132.192 59.5111 129.811C62.2282 129.745 63.6198 125.778 63.3548 122.67C63.0897 119.496 61.8968 116.388 62.4932 113.28C64.4814 113.742 66.7346 112.288 67.4635 110.105C67.7949 109.047 67.8612 107.791 68.1262 106.667C68.8552 103.757 70.9759 101.839 73.2291 99.9879C73.6267 97.9379 74.1569 96.0202 75.2835 94.3671C76.3438 92.9122 77.8018 91.7881 78.597 90.1349C79.9887 87.1591 78.8621 82.6625 81.3141 80.7448C81.5792 80.5464 81.8443 80.348 82.1756 80.2157C82.2419 80.1496 82.3082 80.0174 82.3082 79.9512C82.7058 79.0916 82.7721 78.0335 82.9709 77.0416C83.1034 76.3142 83.3685 75.5868 83.6999 74.9917C83.6999 74.5288 83.6999 74.0659 83.8324 73.6691C84.4951 71.2224 87.411 71.1562 89.6642 70.4288C88.4051 68.5111 87.2785 66.3289 87.411 64.0145C87.6098 61.4355 90.4595 59.2533 92.1162 60.9726C95.2972 58.7243 97.1528 54.2937 96.7552 49.9954C97.683 50.1277 98.6108 49.797 99.3397 49.268C99.2072 48.739 99.0084 48.2761 98.7433 47.8132C99.8699 48.4745 101.063 47.2842 101.725 45.9616C102.123 44.6391 102.189 43.1843 101.659 41.9278C102.388 42.0601 103.117 42.0601 103.846 41.8617C103.912 41.7956 103.979 41.7294 104.111 41.6633C104.376 41.4649 104.708 41.3988 105.039 41.3327C106.099 40.7375 106.961 39.8117 107.491 38.5553C108.286 38.6876 109.082 38.7537 109.943 38.886C110.009 38.8198 110.009 38.7537 110.076 38.6876C110.142 38.6214 110.142 38.5553 110.208 38.4231C110.009 37.4312 109.811 36.4392 109.612 35.4473C109.015 32.67 108.485 29.562 109.612 27.0491C110.805 24.404 113.323 23.0815 115.51 21.4944C121.275 17.13 124.655 9.72368 129.559 4.16895C131.812 1.58998 134.397 -0.658361 137.247 -2.37768C139.168 -3.56798 141.289 -4.49376 143.41 -4.29538C144.47 -4.16313 145.398 -3.76636 146.259 -3.10508C149.573 -4.55989 153.218 -5.55181 156.067 -7.86627C157.923 -9.38721 159.447 -11.4372 161.369 -12.8258C163.291 -14.2145 166.008 -14.6774 167.731 -12.892C167.599 -12.5613 167.4 -12.2307 167.201 -11.8339C167.267 -11.9001 167.4 -11.9001 167.466 -11.9662C168.725 -12.4952 169.918 -13.1565 171.177 -13.5533C173.695 -14.479 176.214 -15.3387 178.798 -16.0661L178.931 -15.6032Z" fill="#189CAB"/>
</g>
<defs>
<clipPath id="clip0_1_809">
<rect width="212" height="229" fill="white" transform="translate(-0.000305176 -16)"/>
</clipPath>
</defs>
</svg>
