<svg width="69" height="96" viewBox="0 0 69 96" fill="none" xmlns="http://www.w3.org/2000/svg">
<g clip-path="url(#clip0_1_783)">
<path d="M30.6174 51.5354C30.6174 51.5354 29.0062 63.1928 27.5427 73.8679C27.2618 73.8872 26.9824 73.9256 26.7065 73.9828C25.3302 74.2669 24.083 74.9958 23.1563 76.0577C22.2295 77.1196 21.6743 78.4559 21.5757 79.8618C21.4771 81.2676 21.8406 82.6654 22.6105 83.8408C23.3803 85.0162 24.5141 85.9044 25.8378 86.3692C25.4786 89.0372 25.2407 90.8313 25.2126 91.1406C25.0476 92.8971 26.792 93.3375 27.1715 91.5252C27.2752 91.0282 27.6032 89.1326 28.0076 86.7259C28.4235 86.7232 28.8383 86.6793 29.246 86.595C30.6244 86.311 31.8735 85.581 32.8011 84.517C33.7286 83.453 34.2834 82.1141 34.3801 80.7061C34.4768 79.298 34.1101 77.8988 33.3362 76.7235C32.5624 75.5482 31.4244 74.6619 30.0971 74.2009C31.3073 66.0991 55.7576 9.41193 54.578 8.4C53.3983 7.38807 37.415 38.1191 30.6174 51.5354ZM32.5753 79.3406C32.7579 80.2526 32.6668 81.1994 32.3134 82.0614C31.96 82.9234 31.3602 83.6618 30.5898 84.1833C29.8195 84.7048 28.9132 84.986 27.9855 84.9913C27.0579 84.9965 26.1505 84.7257 25.3781 84.2129C24.6058 83.7002 24.0031 82.9686 23.6464 82.1107C23.2896 81.2527 23.1948 80.307 23.3738 79.3929C23.5529 78.4789 23.9978 77.6377 24.6523 76.9756C25.3069 76.3135 26.1417 75.8604 27.0511 75.6734C27.6551 75.5491 28.2772 75.5455 28.8818 75.6626C29.4863 75.7797 30.0616 76.0152 30.5746 76.3558C31.0876 76.6963 31.5283 77.1352 31.8716 77.6474C32.2149 78.1595 32.454 78.7349 32.5753 79.3406Z" fill="#062D3E"/>
<path d="M16.6378 63.8996L15.4593 64.685C14.6028 63.7725 13.4982 63.1322 12.2814 62.8427C11.0646 62.5533 9.78873 62.6274 8.61072 63.056C7.43272 63.4846 6.40397 64.2489 5.65106 65.2549C4.89814 66.2609 4.4539 67.4647 4.37298 68.7182C4.29205 69.9718 4.57796 71.2203 5.19557 72.3103C5.81317 73.4004 6.73552 74.2842 7.84912 74.8533C8.96273 75.4223 10.219 75.6516 11.4634 75.5131C12.7079 75.3745 13.8861 74.8741 14.8533 74.0734C15.0273 74.2018 15.1611 74.2979 15.2476 74.3586C16.8511 75.4775 17.8918 73.8565 16.4874 72.6164C16.4469 72.5799 16.3723 72.5159 16.2674 72.4302C17.1255 71.0101 17.405 69.3143 17.0475 67.6969C16.9868 67.4215 16.9079 67.1505 16.8112 66.8857C25.9358 61.1933 35.903 54.9537 35.903 54.9537C45.3492 43.2522 66.8368 16.0999 65.4247 15.4344C64.0126 14.7689 22.4285 60.8592 16.6378 63.8996ZM15.356 68.076C15.5561 68.9842 15.4833 69.9325 15.1465 70.8012C14.8097 71.6698 14.2242 72.4196 13.4641 72.956C12.7039 73.4923 11.8031 73.7909 10.8756 73.8142C9.94817 73.8375 9.0357 73.5843 8.25355 73.0867C7.4714 72.5891 6.85469 71.8694 6.48143 71.0187C6.10817 70.1679 5.9951 69.2242 6.15651 68.3069C6.31792 67.3897 6.74657 66.54 7.38826 65.8654C8.02996 65.1908 8.85589 64.7215 9.76161 64.5169C10.9765 64.2429 12.2484 64.464 13.2975 65.1314C14.3465 65.7988 15.087 66.858 15.356 68.076Z" fill="#062D3E"/>
<path d="M32.8465 51.92C32.9126 52.2168 33.0649 52.4869 33.2842 52.6963C33.5036 52.9057 33.78 53.045 34.0788 53.0966C34.3775 53.1482 34.685 53.1097 34.9626 52.9861C35.2403 52.8625 35.4755 52.6592 35.6385 52.402C35.8016 52.1448 35.8853 51.8451 35.8789 51.5409C35.8726 51.2366 35.7765 50.9414 35.6029 50.6925C35.4293 50.4436 35.1859 50.2522 34.9034 50.1424C34.621 50.0326 34.3121 50.0093 34.0158 50.0756C33.8185 50.1197 33.6316 50.2025 33.4659 50.3192C33.3002 50.4359 33.159 50.5842 33.0504 50.7555C32.9417 50.9269 32.8678 51.118 32.8328 51.3178C32.7978 51.5176 32.8025 51.7223 32.8465 51.92Z" fill="#FBBD08"/>
</g>
<defs>
<clipPath id="clip0_1_783">
<rect width="35.2873" height="88.6952" fill="white" transform="translate(36.1097 0.481934) rotate(23.5379)"/>
</clipPath>
</defs>
</svg>
