<svg width="56" height="61" viewBox="0 0 56 61" fill="none" xmlns="http://www.w3.org/2000/svg">
<g clip-path="url(#clip0_1_795)">
<path d="M21.8145 0.000892236C23.3766 0.604128 24.9038 1.32991 26.5072 1.78194C28.732 2.40587 30.8837 1.97295 32.8511 0.795124C34.4212 -0.14395 35.8864 -0.0977893 37.4104 0.896992C40.4298 2.86746 43.4968 4.77106 46.5098 6.75266C47.0486 7.11026 47.4895 7.59727 47.7923 8.16925C50.4462 13.4456 53.0524 18.7458 55.6713 24.0396C56.272 25.2524 56.0702 25.9066 54.8767 26.5862C52.1751 28.1333 49.4815 29.6836 46.772 31.2132C46.6156 31.2845 46.4855 31.4032 46.4 31.5526C46.3144 31.7019 46.2778 31.8743 46.2953 32.0456C46.3091 36.6327 46.3117 41.2193 46.3032 45.8054C46.3171 46.0232 46.3086 46.2419 46.2778 46.458C46.1777 46.945 45.8726 47.2363 45.3609 47.2109C44.8492 47.1854 44.5663 46.8925 44.517 46.3863C44.5012 46.2081 44.5059 46.0298 44.5059 45.85V20.7767C44.5059 20.6573 44.5059 20.538 44.5059 20.4186C44.5266 19.7533 44.8412 19.3888 45.3958 19.3904C45.9505 19.392 46.2953 19.7708 46.2985 20.4202C46.308 22.8634 46.2985 25.305 46.2985 27.7418V29.4146L54.0742 24.958C54.0027 24.7797 53.9486 24.6174 53.8724 24.4661C51.3149 19.2965 48.7553 14.1279 46.1936 8.9603C46.1048 8.74236 45.9627 8.55025 45.7804 8.40163C43.4205 6.87205 41.0463 5.36157 38.6404 3.82245C38.5736 3.99116 38.5101 4.12487 38.4624 4.26652C36.3488 10.6634 29.3216 13.6955 23.2399 10.8337C23.0254 10.7318 22.814 10.622 22.6043 10.4994C22.1275 10.2065 21.9686 9.73544 22.1863 9.28819C22.404 8.84093 22.9078 8.71837 23.4576 8.92051C24.5494 9.31683 25.6316 9.81821 26.7615 10.0076C31.2111 10.7557 35.8085 7.63447 36.8844 3.2431C36.9654 2.91363 36.9352 2.68124 36.5999 2.5173C36.3043 2.37246 36.0326 2.17826 35.683 1.96498C35.2666 4.31744 34.1463 6.14309 32.2107 7.41959C30.7973 8.36715 29.1048 8.80648 27.4099 8.66583C24.1823 8.42549 21.0533 6.14147 20.2841 2.02547C19.8871 2.24595 19.5059 2.49377 19.1431 2.76716C19.0414 2.8547 19.0764 3.17148 19.1272 3.36248C19.4597 4.59223 20.0478 5.73774 20.853 6.72402C21.1439 7.08851 21.2503 7.53419 20.9198 7.8573C20.6941 8.07854 20.2714 8.17563 19.9361 8.17563C19.7422 8.17563 19.48 7.91935 19.364 7.71402C18.7284 6.59987 18.1356 5.46343 17.5317 4.33177C17.4685 4.1898 17.4154 4.04353 17.3728 3.89406C17.2012 3.98638 17.055 4.05324 16.9072 4.14396C14.7279 5.51809 12.5519 6.89752 10.379 8.28225C10.1473 8.42696 9.95636 8.62858 9.82435 8.86797C7.22132 14.1034 4.62572 19.3432 2.03752 24.5871C1.98508 24.6906 1.95012 24.802 1.89132 24.9516L9.66862 29.4082V28.6761C9.66862 25.9554 9.66862 23.2353 9.66862 20.5157C9.66862 19.7946 9.97373 19.4015 10.5299 19.3856C11.0369 19.3761 11.3611 19.6259 11.4421 20.1321C11.4678 20.3694 11.4753 20.6083 11.4644 20.8467V59.1625H44.4757V50.4737C44.4757 50.2955 44.4757 50.1156 44.4757 49.9389C44.5139 49.3914 44.8253 49.0699 45.3227 49.0524C45.4424 49.0429 45.5628 49.0584 45.6761 49.0981C45.7894 49.1377 45.8933 49.2005 45.9811 49.2826C46.0688 49.3647 46.1385 49.4641 46.1858 49.5747C46.2331 49.6852 46.2568 49.8043 46.2556 49.9246C46.2889 50.617 46.2667 51.3141 46.2683 52.0081C46.2683 54.4115 46.2683 56.8138 46.2683 59.2151C46.2683 60.4566 45.7312 60.9929 44.4948 60.9929H11.4628C10.2343 60.9929 9.69722 60.4518 9.69722 59.2071C9.69722 50.1729 9.7004 41.1392 9.70675 32.1061C9.70675 31.6556 9.58757 31.4042 9.18075 31.1766C6.47919 29.6629 3.81102 28.1158 1.12853 26.5799C-0.0665058 25.8955 -0.274684 25.2492 0.33396 24.0332C2.95288 18.7394 5.57073 13.445 8.18753 8.15013C8.47041 7.55728 8.91929 7.05959 9.47951 6.71765C12.2685 4.96683 15.0415 3.19374 17.8289 1.4652C18.695 0.927225 19.6183 0.47997 20.5146 -0.00866699L21.8145 0.000892236ZM22.2356 2.12735C22.4962 4.79178 25.3662 7.02963 28.2744 6.89434C30.8837 6.77178 33.6314 4.50685 33.6568 2.42816C29.7984 4.55779 26.0035 4.08986 22.2356 2.12735Z" fill="#062D3E"/>
</g>
<defs>
<clipPath id="clip0_1_795">
<rect width="56" height="61" fill="white" transform="translate(0.000244141 0.000915527)"/>
</clipPath>
</defs>
</svg>
