<svg width="296" height="86" viewBox="0 0 296 86" fill="none" xmlns="http://www.w3.org/2000/svg">
<path d="M58.7761 82.3679C58.1036 78.0102 56.5413 73.8377 54.1866 70.1099C51.8318 66.3821 48.735 63.1788 45.0889 60.6995C45.1613 57.2406 45.966 53.8364 47.45 50.7112C48.9339 47.5859 51.0635 44.8108 53.6982 42.5686C67.0974 31.4256 85.7957 34.7624 98.6787 44.8957L99.4558 45.5091C96.9837 47.8914 95.1545 50.8604 94.1384 54.1399C91.7269 62.479 100.218 74.1362 109.085 67.9471C117.654 61.9642 112.843 52.4011 107.096 45.9186C108.842 44.6966 110.685 43.6208 112.608 42.7021C122.894 37.8764 136.624 37.1562 147.592 41.7958C145.191 45.522 143.967 49.7541 145.035 54.2904C146.688 61.4059 157.017 66.5233 162.953 61.0921C170.81 53.9344 161.578 44.6199 154.805 40.2921C157.755 37.4889 161.144 35.1884 164.838 33.4824C171.239 30.5754 178.227 29.1913 185.253 29.4386C192.279 29.6859 199.152 31.5579 205.332 34.9078C207.147 35.9011 208.895 37.0103 210.567 38.2286C207.965 41.7872 205.947 46.1128 206.884 50.5638C207.335 52.6024 208.395 54.4557 209.924 55.8779C211.453 57.3002 213.377 58.2243 215.443 58.5277C217.38 58.6892 219.304 58.101 220.819 56.8846C222.334 55.6681 223.324 53.9163 223.585 51.9909C224.268 47.5305 221.718 42.9774 218.884 39.7668C218.244 39.0366 217.568 38.3409 216.873 37.6574C218.292 36.1926 219.814 34.8323 221.428 33.5869C232.64 24.9065 247.671 21.8079 261.536 24.2033C262.975 24.4468 264.393 24.7733 265.795 25.1418C265.814 27.9687 266.109 30.787 266.675 33.5567C268.534 42.5913 274.487 56.551 285.345 57.2665C295.493 57.9346 296.668 46.7908 293.357 39.7899C289.177 30.8875 279.317 25.1309 270.323 22.1217C269.894 21.981 269.476 21.8489 269.047 21.7181C269.385 15.0247 271.341 8.51302 274.748 2.7415C275.494 1.46554 273.304 0.142508 272.516 1.40328C268.849 7.29308 266.603 13.9557 265.956 20.8637C247.666 16.3713 226.707 21.0336 213.511 34.7605C199.322 23.4519 178.008 21.5005 161.847 29.6257C157.623 31.7355 153.79 34.5499 150.512 37.9479C140.647 33.5338 129.59 32.5425 119.097 35.1315C113.446 36.4933 108.092 38.8811 103.303 42.1764L102.932 41.8475C93.995 34.361 82.2556 29.5808 70.4506 30.4872C54.9955 31.6924 41.7127 43.7379 39.9319 57.863C37.6302 56.8952 35.2097 56.2388 32.7344 55.9111C19.6907 54.1641 6.94503 61.5348 1.09798 73.1078C-0.413145 76.0949 4.36231 78.1708 5.86349 75.1848C10.6399 65.7215 21.2977 59.6035 31.9484 61.0381C34.7077 61.4087 37.3807 62.2594 39.8465 63.5519C40.2915 67.8507 41.7511 71.9824 44.1051 75.6068C46.7539 79.7843 50.6085 83.0594 55.159 84.9988C55.5731 85.1837 56.0287 85.2562 56.4798 85.2089C56.9309 85.1616 57.3616 84.9962 57.7285 84.7294C58.0953 84.4626 58.3853 84.1039 58.5692 83.6893C58.7532 83.2746 58.8245 82.8188 58.7761 82.3679ZM283.146 33.6215C286.359 36.0009 288.851 39.2242 290.344 42.9337C292.09 47.6721 291.367 53.6778 284.975 53.0912C275.336 52.2121 270.468 37.3794 269.387 29.4816C269.253 28.3395 269.118 27.1974 269.065 26.0558C274.166 27.7311 278.933 30.2921 283.146 33.6215ZM218.996 51.2424C217.785 56.6107 211.832 52.569 211.184 49.3729C210.675 46.845 212.009 44.07 213.345 42.0701C213.566 41.7219 213.798 41.3825 214.039 41.0419C217.32 44.0187 219.843 47.6588 219.035 51.2277L218.996 51.2424ZM157.107 47.9555C159.789 50.5498 163.506 57.9158 157.083 58.3597C156.107 58.4197 155.128 58.2789 154.208 57.946C153.288 57.6131 152.446 57.0952 151.734 56.4242C151.022 55.7531 150.455 54.9433 150.068 54.0446C149.681 53.1459 149.482 52.1775 149.484 51.199C149.498 48.5892 150.288 46.0426 151.754 43.8834C153.7 45.0259 155.509 46.3872 157.146 47.9409L157.107 47.9555ZM106.648 53.0599C107.39 54.1042 107.915 55.2866 108.192 56.5373C108.469 57.788 108.492 59.0815 108.26 60.3413C107.28 64.5851 102.722 65.474 100.052 62.2038C96.3189 57.6087 99.1 52.7503 103.258 48.8977C104.552 50.1477 105.702 51.5389 106.686 53.0453L106.648 53.0599ZM46.106 68.1416C48.6672 70.6979 50.6868 73.7443 52.044 77.0988C49.2787 74.7174 47.2351 71.6096 46.1446 68.127L46.106 68.1416Z" fill="#FBBD08"/>
</svg>
